<?xml version="1.0" encoding="UTF-8" standalone="no"?>
<svg
   xmlns:dc="http://purl.org/dc/elements/1.1/"
   xmlns:cc="http://creativecommons.org/ns#"
   xmlns:rdf="http://www.w3.org/1999/02/22-rdf-syntax-ns#"
   xmlns:svg="http://www.w3.org/2000/svg"
   xmlns="http://www.w3.org/2000/svg"
   xmlns:sodipodi="http://sodipodi.sourceforge.net/DTD/sodipodi-0.dtd"
   xmlns:inkscape="http://www.inkscape.org/namespaces/inkscape"
   width="120"
   height="120"
   viewBox="0 0 31.749999 31.750001"
   version="1.1"
   id="svg8"
   inkscape:version="1.0 (4035a4f, 2020-05-01)"
   sodipodi:docname="kousei.svg">
  <defs
     id="defs2" />
  <sodipodi:namedview
     id="base"
     pagecolor="#ffffff"
     bordercolor="#666666"
     borderopacity="1.0"
     inkscape:pageopacity="0.0"
     inkscape:pageshadow="2"
     inkscape:zoom="2.7154261"
     inkscape:cx="-1.0648135"
     inkscape:cy="73.004451"
     inkscape:document-units="px"
     inkscape:current-layer="layer1"
     inkscape:document-rotation="0"
     showgrid="false"
     units="px"
     inkscape:showpageshadow="false"
     borderlayer="true"
     inkscape:window-width="1920"
     inkscape:window-height="1027"
     inkscape:window-x="0"
     inkscape:window-y="25"
     inkscape:window-maximized="1" />
  <metadata
     id="metadata5">
    <rdf:RDF>
      <cc:Work
         rdf:about="">
        <dc:format>image/svg+xml</dc:format>
        <dc:type
           rdf:resource="http://purl.org/dc/dcmitype/StillImage" />
        <dc:title></dc:title>
      </cc:Work>
    </rdf:RDF>
  </metadata>
  <g
     inkscape:label="レイヤー 1"
     inkscape:groupmode="layer"
     id="layer1">
    <path
       d="M 0,0 H 31.75 V 31.75 H 0 Z"
       style="opacity:1;fill:#008000;fill-opacity:1;stroke-width:1.28303;stroke-linecap:round;stroke-linejoin:bevel;stroke-opacity:0.392573"
       id="rect841" />
    <path
       d="m 12.131421,17.627074 q -0.547616,-0.371596 -0.371596,-1.153905 1.056116,-1.36904 1.584175,-3.24658 l -0.997444,-0.743194 -0.03911,-0.117346 0.743193,-0.215135 1.134347,0.136904 0.938771,-2.131791 0.449827,-0.09779 0.586732,0.332481 0.195577,0.567174 -0.977886,2.30781 q 2.249137,0.762751 4.263582,1.525502 l 0.07823,0.430269 -0.704078,0.07823 -0.09779,-0.07823 h -1.212578 l -2.894542,-0.958328 -1.740636,3.051004 z M 6.6943768,16.590515 5.990299,16.29715 5.8925105,15.690861 v -1.29081 L 6.0098568,14.263147 V 11.50551 H 5.4035676 Q 3.9758545,13.539512 2.5090259,15.221475 H 1.9418522 L 1.4529093,14.830321 V 14.517398 L 6.2054339,7.8482173 5.031971,7.5744093 4.2496625,7.6721983 3.4477962,7.0659093 V 6.8312163 L 3.6824887,6.5965233 H 5.168875 l 0.7823086,-0.25425 0.1564617,-0.195577 V 4.3278288 L 5.7556065,2.1764802 Q 6.1467608,1.6288642 6.9095116,1.8048836 L 7.43757,2.2351533 7.554916,2.5285191 v 2.6402912 l 0.136904,0.723636 h 0.488943 l 1.427713,-0.215135 0.528059,0.5085 -0.86054,0.68452 -1.584175,0.234693 -0.273808,2.05356 0.410712,0.645405 q 1.212579,0.7236347 2.777196,0.9778847 l 1.955771,-3.9897727 0.664962,-0.07823 0.60629,0.410712 0.09779,0.469385 -2.05356,3.8137537 q -0.743193,0.312924 -1.721079,0.43027 l -2.366483,-0.93877 -0.371597,0.332481 v 3.755081 l 0.136904,0.117346 v 1.349482 Q 7.202879,16.688305 6.6943788,16.590516 Z M 18.370332,9.8626623 q -1.760194,-0.43027 -3.227023,-1.662406 l -0.05867,-0.156462 0.625847,-0.25425 q 1.79931,0.899655 3.715966,1.349482 l 0.136904,0.332481 q -0.528058,0.17602 -1.193021,0.391155 z m -7.138565,-4.28314 -0.704078,-0.606289 v -0.195577 l 0.449827,-0.273808 h 1.251694 l 1.056117,-0.3911544 0.25425,-0.5280583 V 2.117807 L 13.344,1.3550562 13.578692,1.022575 h 0.782309 l 0.606289,0.5085006 0.136904,1.6232903 -0.156462,0.5280583 0.469385,0.4693852 h 1.681964 l 0.919212,-0.1173463 0.801867,0.4107122 0.07823,0.410712 -0.821424,0.469385 -0.07823,-0.09779 H 16.707927 L 16.59058,5.1101373 h -2.190464 l -2.092675,0.469385 z"
       style="font-style:normal;font-variant:normal;font-weight:normal;font-stretch:normal;font-size:20.02710000000000079px;line-height:1.25;font-family:HuiFontP;-inkscape-font-specification:'HuiFontP, Normal';font-variant-ligatures:normal;font-variant-caps:normal;font-variant-numeric:normal;font-variant-east-asian:normal;text-align:center;text-anchor:middle;stroke-width:0.500678;fill:#ffffff"
       id="path834" />
    <path
       d="m 15.848819,30.461487 -1.059911,-0.886864 v -0.23794 l 0.173047,-0.151416 h 2.487547 l 0.475879,-0.908495 v -1.903515 l -0.129785,-0.497509 0.129785,-0.757079 -0.605664,-2.098193 0.648925,-0.173046 0.951758,0.432617 q 0.475879,1.059911 0.605663,2.357762 v 1.341112 l -0.129784,0.129785 v 1.881883 l 0.367724,0.324463 h 1.362743 l 0.821972,0.173047 0.302832,-1.946776 -0.108156,-0.324463 0.108156,-0.108155 v -8.111567 l -0.951758,-0.346093 -3.763767,0.540771 -0.908495,-0.951758 v -0.173046 l 0.865234,-0.324462 h 1.903515 l 0.129784,-0.151416 h 1.600683 l 0.108156,-0.129786 h 1.427635 l 0.129786,-0.129784 h 3.309519 l 0.432617,-0.08652 0.129786,0.08652 h 1.449265 l 0.930127,0.454247 0.08652,0.454248 -0.389355,0.410987 H 26.664241 L 26.512826,18.521261 H 24.198325 L 23.8306,18.910615 v 2.638964 l -0.173047,0.562402 0.324463,0.886865 0.216309,0.216308 h 1.514159 l 0.302832,-0.108156 0.129784,0.108156 h 1.860254 l 0.930126,0.454248 0.06489,0.670556 q -0.475879,0.302832 -1.146435,0.173047 L 27.70252,24.383219 h -3.222996 l -0.562401,0.281202 -0.259571,0.194677 v 3.287889 l 0.562402,1.103173 0.23794,0.194677 h 1.773728 l 1.946777,-0.367724 h 1.384374 l 0.930126,0.454247 0.108156,0.584034 -0.281202,0.237938 h -2.768747 l -0.108156,0.108156 h -7.159809 l -0.129785,-0.108156 h -2.898534 l -0.108155,0.108156 z"
       style="font-style:normal;font-variant:normal;font-weight:normal;font-stretch:normal;font-size:20.02710000000000079px;line-height:1.25;font-family:HuiFontP;-inkscape-font-specification:'HuiFontP, Normal';font-variant-ligatures:normal;font-variant-caps:normal;font-variant-numeric:normal;font-variant-east-asian:normal;text-align:center;text-anchor:middle;stroke-width:0.55375;fill:#ffffff"
       id="path836" />
  </g>
</svg>
